<svg xmlns="http://www.w3.org/2000/svg" xmlns:xlink="http://www.w3.org/1999/xlink" width="461pt" height="188pt" viewBox="0 0 460.62 188"><g id="graph0" class="graph" transform="scale(1 1) rotate(0) translate(4 184)"><title>G</title><polygon fill="#fff" stroke="none" points="-4 4 -4 -184 456.62 -184 456.62 4 -4 4"/><g id="node1" class="node"><title>:core:network</title><ellipse cx="236.17" cy="-162" fill="none" stroke="#000" rx="62.1" ry="18"/><text x="236.17" y="-156.95" font-family="Times,serif" font-size="14" text-anchor="middle">:core:network</text></g><g id="node2" class="node"><title>:core:common</title><ellipse cx="65.17" cy="-18" fill="none" stroke="#000" rx="65.17" ry="18"/><text x="65.17" y="-12.95" font-family="Times,serif" font-size="14" text-anchor="middle">:core:common</text></g><g id="edge1" class="edge"><title>:core:network-&gt;:core:common</title><path fill="none" stroke="#000" d="M212.3,-145C197.53,-134.83 178.36,-121.15 162.17,-108 136.78,-87.39 109.47,-62.01 90.32,-43.64"/><polygon fill="#000" stroke="#000" points="92.84 -41.21 83.22 -36.78 87.98 -46.25 92.84 -41.21"/></g><g id="node3" class="node"><title>:core:model</title><ellipse cx="397.17" cy="-18" fill="none" stroke="#000" rx="55.45" ry="18"/><text x="397.17" y="-12.95" font-family="Times,serif" font-size="14" text-anchor="middle">:core:model</text></g><g id="edge2" class="edge"><title>:core:network-&gt;:core:model</title><path fill="none" stroke="#000" d="M260.63,-145.07C275.45,-135.04 294.46,-121.48 310.17,-108 333.56,-87.93 357.9,-62.59 374.87,-44.09"/><polygon fill="#000" stroke="#000" points="377.42 -46.48 381.55 -36.73 372.23 -41.78 377.42 -46.48"/></g><g id="node4" class="node"><title>:core:datastore</title><ellipse cx="236.17" cy="-90" fill="none" stroke="#000" rx="65.17" ry="18"/><text x="236.17" y="-84.95" font-family="Times,serif" font-size="14" text-anchor="middle">:core:datastore</text></g><g id="edge3" class="edge"><title>:core:network-&gt;:core:datastore</title><path fill="none" stroke="red" stroke-width="2" d="M236.17,-143.7C236.17,-136.41 236.17,-127.73 236.17,-119.54"/><polygon fill="red" stroke="red" stroke-width="2" points="239.67 -121.13 236.17 -111.13 232.67 -121.13 239.67 -121.13"/></g><g id="edge5" class="edge"><title>:core:datastore-&gt;:core:common</title><path fill="none" stroke="#000" d="M200.74,-74.5C174.72,-63.84 139.14,-49.28 110.96,-37.74"/><polygon fill="#000" stroke="#000" points="112.54 -34.61 101.96 -34.06 109.89 -41.09 112.54 -34.61"/></g><g id="edge6" class="edge"><title>:core:datastore-&gt;:core:model</title><path fill="none" stroke="#000" d="M269.92,-74.33C294.48,-63.65 327.91,-49.11 354.35,-37.62"/><polygon fill="#000" stroke="#000" points="355.67 -40.86 363.45 -33.66 352.88 -34.44 355.67 -40.86"/></g><g id="node5" class="node"><title>:core:datastore-proto</title><ellipse cx="236.17" cy="-18" fill="none" stroke="#000" rx="87.69" ry="18"/><text x="236.17" y="-12.95" font-family="Times,serif" font-size="14" text-anchor="middle">:core:datastore-proto</text></g><g id="edge4" class="edge"><title>:core:datastore-&gt;:core:datastore-proto</title><path fill="none" stroke="red" stroke-width="2" d="M236.17,-71.7C236.17,-64.41 236.17,-55.73 236.17,-47.54"/><polygon fill="red" stroke="red" stroke-width="2" points="239.67 -49.13 236.17 -39.13 232.67 -49.13 239.67 -49.13"/></g></g></svg>