<svg xmlns="http://www.w3.org/2000/svg" xmlns:xlink="http://www.w3.org/1999/xlink" width="506pt" height="188pt" viewBox="0 0 505.72 188"><g id="graph0" class="graph" transform="scale(1 1) rotate(0) translate(4 184)"><title>G</title><polygon fill="#fff" stroke="none" points="-4 4 -4 -184 501.72 -184 501.72 4 -4 4"/><g id="node1" class="node"><title>:core:ui</title><ellipse cx="238.06" cy="-162" fill="none" stroke="#000" rx="39.07" ry="18"/><text x="238.06" y="-156.95" font-family="Times,serif" font-size="14" text-anchor="middle">:core:ui</text></g><g id="node2" class="node"><title>:core:designsystem</title><ellipse cx="82.06" cy="-90" fill="none" stroke="#000" rx="82.06" ry="18"/><text x="82.06" y="-84.95" font-family="Times,serif" font-size="14" text-anchor="middle">:core:designsystem</text></g><g id="edge1" class="edge"><title>:core:ui-&gt;:core:designsystem</title><path fill="none" stroke="red" stroke-width="2" d="M210.89,-148.81C187.92,-138.5 154.54,-123.52 127.52,-111.4"/><polygon fill="red" stroke="red" stroke-width="2" points="130.45 -108.88 119.89 -107.98 127.58 -115.26 130.45 -108.88"/></g><g id="node3" class="node"><title>:core:model</title><ellipse cx="137.06" cy="-18" fill="none" stroke="#000" rx="55.45" ry="18"/><text x="137.06" y="-12.95" font-family="Times,serif" font-size="14" text-anchor="middle">:core:model</text></g><g id="edge2" class="edge"><title>:core:ui-&gt;:core:model</title><path fill="none" stroke="#000" d="M226.28,-144.43C208.88,-119.98 176.18,-74 155.57,-45.02"/><polygon fill="#000" stroke="#000" points="158.61 -43.26 149.96 -37.14 152.9 -47.31 158.61 -43.26"/></g><g id="node4" class="node"><title>:core:common</title><ellipse cx="285.06" cy="-90" fill="none" stroke="#000" rx="65.17" ry="18"/><text x="285.06" y="-84.95" font-family="Times,serif" font-size="14" text-anchor="middle">:core:common</text></g><g id="edge3" class="edge"><title>:core:ui-&gt;:core:common</title><path fill="none" stroke="#000" d="M249.2,-144.41C254.62,-136.34 261.27,-126.43 267.36,-117.35"/><polygon fill="#000" stroke="#000" points="270.16 -119.47 272.83 -109.21 264.35 -115.56 270.16 -119.47"/></g><g id="node5" class="node"><title>:core:analytics</title><ellipse cx="433.06" cy="-90" fill="none" stroke="#000" rx="64.66" ry="18"/><text x="433.06" y="-84.95" font-family="Times,serif" font-size="14" text-anchor="middle">:core:analytics</text></g><g id="edge4" class="edge"><title>:core:ui-&gt;:core:analytics</title><path fill="none" stroke="#000" d="M268.1,-150.22C299.02,-139.12 347.7,-121.64 384.17,-108.55"/><polygon fill="#000" stroke="#000" points="384.94 -111.99 393.17 -105.32 382.57 -105.41 384.94 -111.99"/></g><g id="edge5" class="edge"><title>:core:designsystem-&gt;:core:model</title><path fill="none" stroke="red" stroke-width="2" d="M95.37,-72.05C101.79,-63.89 109.63,-53.91 116.77,-44.82"/><polygon fill="red" stroke="red" stroke-width="2" points="118.57 -48.19 122 -38.17 113.07 -43.87 118.57 -48.19"/></g></g></svg>