<svg xmlns="http://www.w3.org/2000/svg" xmlns:xlink="http://www.w3.org/1999/xlink" width="748pt" height="332pt" viewBox="0 0 748.23 332"><g id="graph0" class="graph" transform="scale(1 1) rotate(0) translate(4 328)"><title>G</title><polygon fill="#fff" stroke="none" points="-4 4 -4 -328 744.23 -328 744.23 4 -4 4"/><g id="node1" class="node"><title>:feature:passcode</title><ellipse cx="293.06" cy="-306" fill="none" stroke="#000" rx="74.89" ry="18"/><text x="293.06" y="-300.95" font-family="Times,serif" font-size="14" text-anchor="middle">:feature:passcode</text></g><g id="node2" class="node"><title>:core:ui</title><ellipse cx="293.06" cy="-162" fill="none" stroke="#000" rx="39.07" ry="18"/><text x="293.06" y="-156.95" font-family="Times,serif" font-size="14" text-anchor="middle">:core:ui</text></g><g id="edge1" class="edge"><title>:feature:passcode-&gt;:core:ui</title><path fill="none" stroke="#000" d="M293.06,-287.59C293.06,-263.61 293.06,-220.14 293.06,-191.42"/><polygon fill="#000" stroke="#000" points="296.56 -191.62 293.06 -181.62 289.56 -191.62 296.56 -191.62"/></g><g id="node3" class="node"><title>:core:designsystem</title><ellipse cx="82.06" cy="-90" fill="none" stroke="#000" rx="82.06" ry="18"/><text x="82.06" y="-84.95" font-family="Times,serif" font-size="14" text-anchor="middle">:core:designsystem</text></g><g id="edge2" class="edge"><title>:feature:passcode-&gt;:core:designsystem</title><path fill="none" stroke="#000" d="M276.5,-288.21C239.62,-250.8 150.51,-160.42 106.91,-116.21"/><polygon fill="#000" stroke="#000" points="109.41 -113.75 99.89 -109.09 104.42 -118.67 109.41 -113.75"/></g><g id="node4" class="node"><title>:core:data</title><ellipse cx="396.06" cy="-234" fill="none" stroke="#000" rx="47.26" ry="18"/><text x="396.06" y="-228.95" font-family="Times,serif" font-size="14" text-anchor="middle">:core:data</text></g><g id="edge3" class="edge"><title>:feature:passcode-&gt;:core:data</title><path fill="none" stroke="red" stroke-width="2" d="M317.21,-288.59C331.26,-279.04 349.13,-266.9 364.3,-256.58"/><polygon fill="red" stroke="red" stroke-width="2" points="365.01 -260.33 371.32 -251.82 361.08 -254.54 365.01 -260.33"/></g><g id="edge4" class="edge"><title>:core:ui-&gt;:core:designsystem</title><path fill="none" stroke="#000" d="M261.93,-150.67C229.02,-139.76 176.49,-122.33 136.67,-109.12"/><polygon fill="#000" stroke="#000" points="137.83 -105.82 127.24 -105.99 135.63 -112.46 137.83 -105.82"/></g><g id="node5" class="node"><title>:core:model</title><ellipse cx="343.06" cy="-18" fill="none" stroke="#000" rx="55.45" ry="18"/><text x="343.06" y="-12.95" font-family="Times,serif" font-size="14" text-anchor="middle">:core:model</text></g><g id="edge5" class="edge"><title>:core:ui-&gt;:core:model</title><path fill="none" stroke="#000" d="M303.23,-144.31C309.1,-134.11 316.24,-120.64 321.06,-108 328.56,-88.33 334.18,-65.23 337.86,-47.49"/><polygon fill="#000" stroke="#000" points="341.25 -48.42 339.76 -37.93 334.38 -47.05 341.25 -48.42"/></g><g id="node6" class="node"><title>:core:common</title><ellipse cx="675.06" cy="-18" fill="none" stroke="#000" rx="65.17" ry="18"/><text x="675.06" y="-12.95" font-family="Times,serif" font-size="14" text-anchor="middle">:core:common</text></g><g id="edge6" class="edge"><title>:core:ui-&gt;:core:common</title><path fill="none" stroke="#000" d="M330.05,-155.59C403.18,-144.69 561.14,-120.11 583.06,-108 602.06,-97.5 600.64,-87.27 616.06,-72 625.97,-62.19 637.28,-51.84 647.33,-42.92"/><polygon fill="#000" stroke="#000" points="649.43 -45.73 654.63 -36.49 644.81 -40.47 649.43 -45.73"/></g><g id="node7" class="node"><title>:core:analytics</title><ellipse cx="247.06" cy="-90" fill="none" stroke="#000" rx="64.66" ry="18"/><text x="247.06" y="-84.95" font-family="Times,serif" font-size="14" text-anchor="middle">:core:analytics</text></g><g id="edge7" class="edge"><title>:core:ui-&gt;:core:analytics</title><path fill="none" stroke="#000" d="M282.16,-144.41C276.85,-136.34 270.34,-126.43 264.38,-117.35"/><polygon fill="#000" stroke="#000" points="267.45 -115.66 259.03 -109.22 261.6 -119.5 267.45 -115.66"/></g><g id="edge8" class="edge"><title>:core:designsystem-&gt;:core:model</title><path fill="none" stroke="#000" d="M132.69,-75.42C178.02,-63.26 244.24,-45.5 290.23,-33.17"/><polygon fill="#000" stroke="#000" points="290.96 -36.6 299.71 -30.63 289.15 -29.84 290.96 -36.6"/></g><g id="edge10" class="edge"><title>:core:data-&gt;:core:model</title><path fill="none" stroke="#000" d="M391.81,-215.85C382.7,-179.07 361.21,-92.29 350.05,-47.24"/><polygon fill="#000" stroke="#000" points="353.49 -46.57 347.69 -37.7 346.7 -48.25 353.49 -46.57"/></g><g id="edge9" class="edge"><title>:core:data-&gt;:core:common</title><path fill="none" stroke="#000" d="M436.95,-224.49C471.27,-216.27 520.84,-201.82 560.06,-180 603.32,-155.93 617.25,-148.96 645.06,-108 657.46,-89.74 665.13,-65.91 669.61,-47.5"/><polygon fill="#000" stroke="#000" points="673.02 -48.3 671.78 -37.78 666.19 -46.78 673.02 -48.3"/></g><g id="node8" class="node"><title>:core:network</title><ellipse cx="489.06" cy="-162" fill="none" stroke="#000" rx="62.1" ry="18"/><text x="489.06" y="-156.95" font-family="Times,serif" font-size="14" text-anchor="middle">:core:network</text></g><g id="edge11" class="edge"><title>:core:data-&gt;:core:network</title><path fill="none" stroke="red" stroke-width="2" d="M416.7,-217.46C428.96,-208.24 444.74,-196.36 458.43,-186.05"/><polygon fill="red" stroke="red" stroke-width="2" points="459.2 -189.85 465.09 -181.04 455 -184.26 459.2 -189.85"/></g><g id="edge13" class="edge"><title>:core:network-&gt;:core:model</title><path fill="none" stroke="#000" d="M472.03,-144.43C446.42,-119.53 397.86,-72.3 368.18,-43.43"/><polygon fill="#000" stroke="#000" points="370.68 -40.98 361.07 -36.52 365.8 -46 370.68 -40.98"/></g><g id="edge12" class="edge"><title>:core:network-&gt;:core:common</title><path fill="none" stroke="#000" d="M534.27,-149.3C560.23,-140.93 592.3,-127.63 616.06,-108 636.32,-91.27 652.23,-65.78 662.4,-46.36"/><polygon fill="#000" stroke="#000" points="665.42 -48.15 666.77 -37.64 659.16 -45.01 665.42 -48.15"/></g><g id="node9" class="node"><title>:core:datastore</title><ellipse cx="509.06" cy="-90" fill="none" stroke="#000" rx="65.17" ry="18"/><text x="509.06" y="-84.95" font-family="Times,serif" font-size="14" text-anchor="middle">:core:datastore</text></g><g id="edge14" class="edge"><title>:core:network-&gt;:core:datastore</title><path fill="none" stroke="red" stroke-width="2" d="M494,-143.7C496.14,-136.24 498.68,-127.32 501.07,-118.97"/><polygon fill="red" stroke="red" stroke-width="2" points="503.96 -121.59 503.34 -111.01 497.23 -119.67 503.96 -121.59"/></g><g id="edge17" class="edge"><title>:core:datastore-&gt;:core:model</title><path fill="none" stroke="#000" d="M474.26,-74.33C448.66,-63.53 413.7,-48.79 386.31,-37.24"/><polygon fill="#000" stroke="#000" points="387.81 -34.07 377.23 -33.41 385.09 -40.52 387.81 -34.07"/></g><g id="edge16" class="edge"><title>:core:datastore-&gt;:core:common</title><path fill="none" stroke="#000" d="M543.86,-74.33C568.87,-63.78 602.82,-49.46 629.91,-38.04"/><polygon fill="#000" stroke="#000" points="631.06 -41.35 638.91 -34.24 628.34 -34.9 631.06 -41.35"/></g><g id="node10" class="node"><title>:core:datastore-proto</title><ellipse cx="504.06" cy="-18" fill="none" stroke="#000" rx="87.69" ry="18"/><text x="504.06" y="-12.95" font-family="Times,serif" font-size="14" text-anchor="middle">:core:datastore-proto</text></g><g id="edge15" class="edge"><title>:core:datastore-&gt;:core:datastore-proto</title><path fill="none" stroke="red" stroke-width="2" d="M507.82,-71.7C507.3,-64.41 506.68,-55.73 506.1,-47.54"/><polygon fill="red" stroke="red" stroke-width="2" points="509.7 -48.85 505.5 -39.12 502.72 -49.35 509.7 -48.85"/></g></g></svg>