<svg xmlns="http://www.w3.org/2000/svg" xmlns:xlink="http://www.w3.org/1999/xlink" width="488pt" height="332pt" viewBox="0 0 488.26 332"><g id="graph0" class="graph" transform="scale(1 1) rotate(0) translate(4 328)"><title>G</title><polygon fill="#fff" stroke="transparent" points="-4 4 -4 -328 484.26 -328 484.26 4 -4 4"/><g id="node1" class="node"><title>:core:data</title><ellipse cx="193.27" cy="-306" fill="none" stroke="#000" rx="57.39" ry="18"/><text x="193.27" y="-302.3" font-family="Times,serif" font-size="14" text-anchor="middle">:core:data</text></g><g id="node2" class="node"><title>:core:common</title><ellipse cx="113.27" cy="-18" fill="none" stroke="#000" rx="75.29" ry="18"/><text x="113.27" y="-14.3" font-family="Times,serif" font-size="14" text-anchor="middle">:core:common</text></g><g id="edge1" class="edge"><title>:core:data-&gt;:core:common</title><path fill="none" stroke="#000" d="M154.05,-292.67C108.03,-275.74 34.44,-240.33 6.27,-180 -18.59,-126.77 40.58,-71.06 80.48,-41.15"/><polygon fill="#000" stroke="#000" points="82.66 -43.89 88.67 -35.17 78.53 -38.24 82.66 -43.89"/></g><g id="node3" class="node"><title>:core:datastore</title><ellipse cx="96.27" cy="-162" fill="none" stroke="#000" rx="81.49" ry="18"/><text x="96.27" y="-158.3" font-family="Times,serif" font-size="14" text-anchor="middle">:core:datastore</text></g><g id="edge2" class="edge"><title>:core:data-&gt;:core:datastore</title><path fill="none" stroke="#000" d="M158.6,-291.56C141,-282.92 120.92,-269.93 109.27,-252 97.4,-233.75 94.6,-208.98 94.52,-190.21"/><polygon fill="#000" stroke="#000" points="98.02 -190.28 94.72 -180.21 91.02 -190.13 98.02 -190.28"/></g><g id="node4" class="node"><title>:core:model</title><ellipse cx="160.27" cy="-90" fill="none" stroke="#000" rx="64.99" ry="18"/><text x="160.27" y="-86.3" font-family="Times,serif" font-size="14" text-anchor="middle">:core:model</text></g><g id="edge3" class="edge"><title>:core:data-&gt;:core:model</title><path fill="none" stroke="#000" d="M229.43,-291.99C247.23,-283.53 267.03,-270.57 277.27,-252 284.99,-237.99 283.15,-230.88 277.27,-216 260.17,-172.72 220.23,-135.63 191.78,-113.34"/><polygon fill="#000" stroke="#000" points="193.8 -110.48 183.73 -107.18 189.54 -116.04 193.8 -110.48"/></g><g id="node5" class="node"><title>:core:network</title><ellipse cx="193.27" cy="-234" fill="none" stroke="#000" rx="74.99" ry="18"/><text x="193.27" y="-230.3" font-family="Times,serif" font-size="14" text-anchor="middle">:core:network</text></g><g id="edge4" class="edge"><title>:core:data-&gt;:core:network</title><path fill="none" stroke="red" stroke-width="2" d="M193.27,-287.7C193.27,-279.98 193.27,-270.71 193.27,-262.11"/><polygon fill="red" stroke="red" stroke-width="2" points="196.77 -262.1 193.27 -252.1 189.77 -262.1 196.77 -262.1"/></g><g id="node6" class="node"><title>:core:analytics</title><ellipse cx="402.27" cy="-234" fill="none" stroke="#000" rx="77.99" ry="18"/><text x="402.27" y="-230.3" font-family="Times,serif" font-size="14" text-anchor="middle">:core:analytics</text></g><g id="edge5" class="edge"><title>:core:data-&gt;:core:analytics</title><path fill="none" stroke="#000" d="M231.12,-292.32C264.48,-281.15 313.41,-264.76 350.41,-252.37"/><polygon fill="#000" stroke="#000" points="351.66 -255.64 360.03 -249.15 349.44 -249 351.66 -255.64"/></g><g id="edge7" class="edge"><title>:core:datastore-&gt;:core:common</title><path fill="none" stroke="#000" d="M90.84,-143.72C85.95,-125.63 80.39,-96.49 86.27,-72 88.51,-62.66 92.69,-53.11 97.1,-44.74"/><polygon fill="#000" stroke="#000" points="100.24 -46.29 102.08 -35.86 94.13 -42.87 100.24 -46.29"/></g><g id="edge6" class="edge"><title>:core:datastore-&gt;:core:model</title><path fill="none" stroke="red" stroke-width="2" d="M111.76,-144.05C119.62,-135.46 129.31,-124.86 137.96,-115.4"/><polygon fill="red" stroke="red" stroke-width="2" points="140.75 -117.53 144.92 -107.79 135.59 -112.81 140.75 -117.53"/></g><g id="edge8" class="edge"><title>:core:model-&gt;:core:common</title><path fill="none" stroke="red" stroke-width="2" d="M148.89,-72.05C143.37,-63.84 136.63,-53.79 130.5,-44.66"/><polygon fill="red" stroke="red" stroke-width="2" points="133.35 -42.63 124.87 -36.28 127.54 -46.53 133.35 -42.63"/></g><g id="edge9" class="edge"><title>:core:network-&gt;:core:common</title><path fill="none" stroke="#000" d="M205.69,-216.05C226.75,-185.04 264.41,-118.11 234.27,-72 221.92,-53.11 201.18,-40.91 180.32,-33.05"/><polygon fill="#000" stroke="#000" points="181.36 -29.7 170.77 -29.73 179.07 -36.31 181.36 -29.7"/></g><g id="edge11" class="edge"><title>:core:network-&gt;:core:datastore</title><path fill="none" stroke="red" stroke-width="2" d="M170.77,-216.76C157.89,-207.47 141.53,-195.66 127.42,-185.48"/><polygon fill="red" stroke="red" stroke-width="2" points="129.14 -182.4 118.98 -179.39 125.04 -188.08 129.14 -182.4"/></g><g id="edge10" class="edge"><title>:core:network-&gt;:core:model</title><path fill="none" stroke="#000" d="M193.81,-215.94C193.95,-197.79 192.94,-168.37 186.27,-144 183.75,-134.81 179.63,-125.3 175.41,-116.92"/><polygon fill="#000" stroke="#000" points="178.45 -115.2 170.67 -108.01 172.27 -118.48 178.45 -115.2"/></g></g></svg>