<svg xmlns="http://www.w3.org/2000/svg" xmlns:xlink="http://www.w3.org/1999/xlink" width="1064" height="404pt" viewBox="0 0 798.48 404"><g id="graph0" class="graph" transform="scale(1 1) rotate(0) translate(4 400)"><title>G</title><polygon fill="#fff" stroke="transparent" points="-4 4 -4 -400 794.48 -400 794.48 4 -4 4"/><g id="node1" class="node"><title>:feature:qr</title><ellipse cx="248.74" cy="-378" fill="none" stroke="#000" rx="60.39" ry="18"/><text x="248.74" y="-374.3" font-family="Times,serif" font-size="14" text-anchor="middle">:feature:qr</text></g><g id="node2" class="node"><title>:core:ui</title><ellipse cx="248.74" cy="-306" fill="none" stroke="#000" rx="45.49" ry="18"/><text x="248.74" y="-302.3" font-family="Times,serif" font-size="14" text-anchor="middle">:core:ui</text></g><g id="edge1" class="edge"><title>:feature:qr-&gt;:core:ui</title><path fill="none" stroke="#000" d="M248.74,-359.7C248.74,-351.98 248.74,-342.71 248.74,-334.11"/><polygon fill="#000" stroke="#000" points="252.24 -334.1 248.74 -324.1 245.24 -334.1 252.24 -334.1"/></g><g id="node3" class="node"><title>:core:designsystem</title><ellipse cx="100.74" cy="-234" fill="none" stroke="#000" rx="100.98" ry="18"/><text x="100.74" y="-230.3" font-family="Times,serif" font-size="14" text-anchor="middle">:core:designsystem</text></g><g id="edge2" class="edge"><title>:feature:qr-&gt;:core:designsystem</title><path fill="none" stroke="#000" d="M231.76,-360.71C205.84,-335.83 156.21,-288.22 126.03,-259.26"/><polygon fill="#000" stroke="#000" points="128.08 -256.38 118.44 -251.98 123.23 -261.43 128.08 -256.38"/></g><g id="node4" class="node"><title>:core:data</title><ellipse cx="498.74" cy="-306" fill="none" stroke="#000" rx="57.39" ry="18"/><text x="498.74" y="-302.3" font-family="Times,serif" font-size="14" text-anchor="middle">:core:data</text></g><g id="edge3" class="edge"><title>:feature:qr-&gt;:core:data</title><path fill="none" stroke="red" stroke-width="2" d="M291.15,-365.13C334.37,-353.02 401.43,-334.25 447.57,-321.33"/><polygon fill="red" stroke="red" stroke-width="2" points="448.69 -324.65 457.37 -318.58 446.8 -317.91 448.69 -324.65"/></g><g id="edge5" class="edge"><title>:core:ui-&gt;:core:designsystem</title><path fill="none" stroke="#000" d="M220.56,-291.67C198.84,-281.4 168.45,-267.02 143.71,-255.32"/><polygon fill="#000" stroke="#000" points="145.07 -252.09 134.53 -250.98 142.07 -258.42 145.07 -252.09"/></g><g id="node5" class="node"><title>:core:analytics</title><ellipse cx="373.74" cy="-234" fill="none" stroke="#000" rx="77.99" ry="18"/><text x="373.74" y="-230.3" font-family="Times,serif" font-size="14" text-anchor="middle">:core:analytics</text></g><g id="edge4" class="edge"><title>:core:ui-&gt;:core:analytics</title><path fill="none" stroke="#000" d="M274.04,-290.83C291.98,-280.79 316.35,-267.14 336.5,-255.85"/><polygon fill="#000" stroke="#000" points="338.42 -258.79 345.43 -250.85 335 -252.69 338.42 -258.79"/></g><g id="node6" class="node"><title>:core:model</title><ellipse cx="572.74" cy="-90" fill="none" stroke="#000" rx="64.99" ry="18"/><text x="572.74" y="-86.3" font-family="Times,serif" font-size="14" text-anchor="middle">:core:model</text></g><g id="edge6" class="edge"><title>:core:ui-&gt;:core:model</title><path fill="none" stroke="#000" d="M252.08,-287.79C256.71,-268.11 266.87,-236.04 286.74,-216 348.94,-153.27 447.91,-119.74 511.59,-103.66"/><polygon fill="#000" stroke="#000" points="512.62 -107.01 521.49 -101.23 510.95 -100.22 512.62 -107.01"/></g><g id="node7" class="node"><title>:core:common</title><ellipse cx="572.74" cy="-18" fill="none" stroke="#000" rx="75.29" ry="18"/><text x="572.74" y="-14.3" font-family="Times,serif" font-size="14" text-anchor="middle">:core:common</text></g><g id="edge7" class="edge"><title>:core:ui-&gt;:core:common</title><path fill="none" stroke="#000" d="M247.74,-287.71C247.35,-269.1 248.78,-239.06 259.74,-216 278.76,-175.97 293.19,-170.47 328.74,-144 391.5,-97.27 474.28,-59 525.49,-37.61"/><polygon fill="#000" stroke="#000" points="527.08 -40.74 534.98 -33.68 524.4 -34.27 527.08 -40.74"/></g><g id="edge14" class="edge"><title>:core:data-&gt;:core:analytics</title><path fill="none" stroke="#000" d="M471.93,-289.98C454.21,-280.06 430.75,-266.93 411.21,-255.98"/><polygon fill="#000" stroke="#000" points="412.69 -252.8 402.25 -250.97 409.27 -258.91 412.69 -252.8"/></g><g id="edge12" class="edge"><title>:core:data-&gt;:core:model</title><path fill="none" stroke="#000" d="M500.7,-287.9C504.59,-257.76 514.89,-193.69 536.74,-144 540.99,-134.33 547.05,-124.53 552.98,-116.04"/><polygon fill="#000" stroke="#000" points="555.98 -117.87 559.04 -107.72 550.32 -113.75 555.98 -117.87"/></g><g id="edge10" class="edge"><title>:core:data-&gt;:core:common</title><path fill="none" stroke="#000" d="M493.76,-287.97C482.99,-247.73 461.4,-144.68 498.74,-72 505.67,-58.52 517.78,-47.71 530.23,-39.45"/><polygon fill="#000" stroke="#000" points="532.17 -42.37 538.84 -34.14 528.49 -36.41 532.17 -42.37"/></g><g id="node8" class="node"><title>:core:datastore</title><ellipse cx="626.74" cy="-162" fill="none" stroke="#000" rx="81.49" ry="18"/><text x="626.74" y="-158.3" font-family="Times,serif" font-size="14" text-anchor="middle">:core:datastore</text></g><g id="edge11" class="edge"><title>:core:data-&gt;:core:datastore</title><path fill="none" stroke="#000" d="M513.67,-288.43C536.1,-263.56 578.61,-216.4 604.63,-187.53"/><polygon fill="#000" stroke="#000" points="607.41 -189.67 611.51 -179.9 602.21 -184.99 607.41 -189.67"/></g><g id="node9" class="node"><title>:core:network</title><ellipse cx="715.74" cy="-234" fill="none" stroke="#000" rx="74.99" ry="18"/><text x="715.74" y="-230.3" font-family="Times,serif" font-size="14" text-anchor="middle">:core:network</text></g><g id="edge13" class="edge"><title>:core:data-&gt;:core:network</title><path fill="none" stroke="red" stroke-width="2" d="M537.54,-292.49C572.6,-281.17 624.51,-264.43 663.27,-251.93"/><polygon fill="red" stroke="red" stroke-width="2" points="664.38 -255.25 672.82 -248.85 662.23 -248.58 664.38 -255.25"/></g><g id="edge9" class="edge"><title>:core:model-&gt;:core:common</title><path fill="none" stroke="red" stroke-width="2" d="M572.74,-71.7C572.74,-63.98 572.74,-54.71 572.74,-46.11"/><polygon fill="red" stroke="red" stroke-width="2" points="576.24 -46.1 572.74 -36.1 569.24 -46.1 576.24 -46.1"/></g><g id="edge15" class="edge"><title>:core:datastore-&gt;:core:model</title><path fill="none" stroke="red" stroke-width="2" d="M613.67,-144.05C607.17,-135.63 599.19,-125.28 592,-115.97"/><polygon fill="red" stroke="red" stroke-width="2" points="594.57 -113.57 585.69 -107.79 589.03 -117.84 594.57 -113.57"/></g><g id="edge16" class="edge"><title>:core:datastore-&gt;:core:common</title><path fill="none" stroke="#000" d="M637.05,-144.07C646.92,-125.5 658.68,-95.24 646.74,-72 639.82,-58.52 627.7,-47.71 615.25,-39.45"/><polygon fill="#000" stroke="#000" points="616.99 -36.41 606.64 -34.14 613.31 -42.37 616.99 -36.41"/></g><g id="edge18" class="edge"><title>:core:network-&gt;:core:model</title><path fill="none" stroke="#000" d="M721.37,-215.88C726.58,-196.59 731.5,-165.17 716.74,-144 699.77,-119.67 670.31,-106.47 642.44,-99.34"/><polygon fill="#000" stroke="#000" points="643.21 -95.92 632.67 -97.05 641.62 -102.74 643.21 -95.92"/></g><g id="edge17" class="edge"><title>:core:network-&gt;:core:common</title><path fill="none" stroke="#000" d="M725.18,-216.05C734.07,-197.73 744.66,-167.94 734.74,-144 713.62,-93 658.45,-57.86 618.35,-38.11"/><polygon fill="#000" stroke="#000" points="619.81 -34.93 609.27 -33.78 616.79 -41.25 619.81 -34.93"/></g><g id="edge19" class="edge"><title>:core:network-&gt;:core:datastore</title><path fill="none" stroke="red" stroke-width="2" d="M694.65,-216.41C683.01,-207.26 668.39,-195.76 655.69,-185.77"/><polygon fill="red" stroke="red" stroke-width="2" points="657.71 -182.9 647.68 -179.47 653.38 -188.4 657.71 -182.9"/></g></g></svg>