<svg xmlns="http://www.w3.org/2000/svg" xmlns:xlink="http://www.w3.org/1999/xlink" width="200pt" height="188pt" viewBox="0 0 200.24 188"><g id="graph0" class="graph" transform="scale(1 1) rotate(0) translate(4 184)"><title>G</title><polygon fill="#fff" stroke="transparent" points="-4 4 -4 -184 196.24 -184 196.24 4 -4 4"/><g id="node1" class="node"><title>:core:datastore</title><ellipse cx="110.99" cy="-162" fill="none" stroke="#000" rx="81.49" ry="18"/><text x="110.99" y="-158.3" font-family="Times,serif" font-size="14" text-anchor="middle">:core:datastore</text></g><g id="node2" class="node"><title>:core:model</title><ellipse cx="64.99" cy="-90" fill="none" stroke="#000" rx="64.99" ry="18"/><text x="64.99" y="-86.3" font-family="Times,serif" font-size="14" text-anchor="middle">:core:model</text></g><g id="edge1" class="edge"><title>:core:datastore-&gt;:core:model</title><path fill="none" stroke="red" stroke-width="2" d="M99.86,-144.05C94.38,-135.71 87.66,-125.49 81.59,-116.25"/><polygon fill="red" stroke="red" stroke-width="2" points="84.44 -114.22 76.03 -107.79 78.59 -118.07 84.44 -114.22"/></g><g id="node3" class="node"><title>:core:common</title><ellipse cx="110.99" cy="-18" fill="none" stroke="#000" rx="75.29" ry="18"/><text x="110.99" y="-14.3" font-family="Times,serif" font-size="14" text-anchor="middle">:core:common</text></g><g id="edge2" class="edge"><title>:core:datastore-&gt;:core:common</title><path fill="none" stroke="#000" d="M122.88,-143.72C129.01,-133.76 135.84,-120.73 138.99,-108 142.84,-92.47 142.84,-87.53 138.99,-72 136.67,-62.61 132.33,-53.04 127.76,-44.67"/><polygon fill="#000" stroke="#000" points="130.65 -42.68 122.59 -35.8 124.6 -46.21 130.65 -42.68"/></g><g id="edge3" class="edge"><title>:core:model-&gt;:core:common</title><path fill="none" stroke="red" stroke-width="2" d="M76.13,-72.05C81.53,-63.84 88.13,-53.79 94.13,-44.66"/><polygon fill="red" stroke="red" stroke-width="2" points="97.08 -46.55 99.64 -36.28 91.23 -42.71 97.08 -46.55"/></g></g></svg>