<svg xmlns="http://www.w3.org/2000/svg" xmlns:xlink="http://www.w3.org/1999/xlink" width="1024" height="404pt" viewBox="0 0 768.44 404"><g id="graph0" class="graph" transform="scale(1 1) rotate(0) translate(4 400)"><title>G</title><polygon fill="#fff" stroke="transparent" points="-4 4 -4 -400 764.44 -400 764.44 4 -4 4"/><g id="node1" class="node"><title>:feature:request-money</title><ellipse cx="248.74" cy="-378" fill="none" stroke="#000" rx="119.68" ry="18"/><text x="248.74" y="-374.3" font-family="Times,serif" font-size="14" text-anchor="middle">:feature:request-money</text></g><g id="node2" class="node"><title>:core:ui</title><ellipse cx="248.74" cy="-306" fill="none" stroke="#000" rx="45.49" ry="18"/><text x="248.74" y="-302.3" font-family="Times,serif" font-size="14" text-anchor="middle">:core:ui</text></g><g id="edge1" class="edge"><title>:feature:request-money-&gt;:core:ui</title><path fill="none" stroke="#000" d="M248.74,-359.7C248.74,-351.98 248.74,-342.71 248.74,-334.11"/><polygon fill="#000" stroke="#000" points="252.24 -334.1 248.74 -324.1 245.24 -334.1 252.24 -334.1"/></g><g id="node3" class="node"><title>:core:designsystem</title><ellipse cx="100.74" cy="-234" fill="none" stroke="#000" rx="100.98" ry="18"/><text x="100.74" y="-230.3" font-family="Times,serif" font-size="14" text-anchor="middle">:core:designsystem</text></g><g id="edge2" class="edge"><title>:feature:request-money-&gt;:core:designsystem</title><path fill="none" stroke="#000" d="M231.18,-360.15C205.03,-335.07 155.74,-287.77 125.81,-259.05"/><polygon fill="#000" stroke="#000" points="127.92 -256.22 118.28 -251.82 123.07 -261.27 127.92 -256.22"/></g><g id="node4" class="node"><title>:core:data</title><ellipse cx="498.74" cy="-306" fill="none" stroke="#000" rx="57.39" ry="18"/><text x="498.74" y="-302.3" font-family="Times,serif" font-size="14" text-anchor="middle">:core:data</text></g><g id="edge3" class="edge"><title>:feature:request-money-&gt;:core:data</title><path fill="none" stroke="red" stroke-width="2" d="M302.68,-361.9C345.6,-349.88 405.26,-333.17 447.47,-321.36"/><polygon fill="red" stroke="red" stroke-width="2" points="448.58 -324.68 457.27 -318.61 446.7 -317.94 448.58 -324.68"/></g><g id="edge5" class="edge"><title>:core:ui-&gt;:core:designsystem</title><path fill="none" stroke="#000" d="M220.56,-291.67C198.84,-281.4 168.45,-267.02 143.71,-255.32"/><polygon fill="#000" stroke="#000" points="145.07 -252.09 134.53 -250.98 142.07 -258.42 145.07 -252.09"/></g><g id="node5" class="node"><title>:core:analytics</title><ellipse cx="373.74" cy="-234" fill="none" stroke="#000" rx="77.99" ry="18"/><text x="373.74" y="-230.3" font-family="Times,serif" font-size="14" text-anchor="middle">:core:analytics</text></g><g id="edge4" class="edge"><title>:core:ui-&gt;:core:analytics</title><path fill="none" stroke="#000" d="M274.04,-290.83C291.98,-280.79 316.35,-267.14 336.5,-255.85"/><polygon fill="#000" stroke="#000" points="338.42 -258.79 345.43 -250.85 335 -252.69 338.42 -258.79"/></g><g id="node6" class="node"><title>:core:model</title><ellipse cx="572.74" cy="-90" fill="none" stroke="#000" rx="64.99" ry="18"/><text x="572.74" y="-86.3" font-family="Times,serif" font-size="14" text-anchor="middle">:core:model</text></g><g id="edge6" class="edge"><title>:core:ui-&gt;:core:model</title><path fill="none" stroke="#000" d="M252.08,-287.79C256.71,-268.11 266.87,-236.04 286.74,-216 348.94,-153.27 447.91,-119.74 511.59,-103.66"/><polygon fill="#000" stroke="#000" points="512.62 -107.01 521.49 -101.23 510.95 -100.22 512.62 -107.01"/></g><g id="node7" class="node"><title>:core:common</title><ellipse cx="572.74" cy="-18" fill="none" stroke="#000" rx="75.29" ry="18"/><text x="572.74" y="-14.3" font-family="Times,serif" font-size="14" text-anchor="middle">:core:common</text></g><g id="edge7" class="edge"><title>:core:ui-&gt;:core:common</title><path fill="none" stroke="#000" d="M248.01,-287.72C247.9,-269.11 249.72,-239.07 260.74,-216 279.71,-176.28 293.53,-170.42 328.74,-144 391.33,-97.04 474.16,-58.84 525.42,-37.52"/><polygon fill="#000" stroke="#000" points="527.01 -40.65 534.93 -33.61 524.35 -34.18 527.01 -40.65"/></g><g id="edge13" class="edge"><title>:core:data-&gt;:core:analytics</title><path fill="none" stroke="#000" d="M471.93,-289.98C454.21,-280.06 430.75,-266.93 411.21,-255.98"/><polygon fill="#000" stroke="#000" points="412.69 -252.8 402.25 -250.97 409.27 -258.91 412.69 -252.8"/></g><g id="edge11" class="edge"><title>:core:data-&gt;:core:model</title><path fill="none" stroke="#000" d="M504.67,-287.85C517.56,-250.58 548.19,-162 563.58,-117.49"/><polygon fill="#000" stroke="#000" points="566.92 -118.53 566.88 -107.94 560.31 -116.24 566.92 -118.53"/></g><g id="edge9" class="edge"><title>:core:data-&gt;:core:common</title><path fill="none" stroke="#000" d="M493.76,-287.97C482.99,-247.73 461.4,-144.68 498.74,-72 505.67,-58.52 517.78,-47.71 530.23,-39.45"/><polygon fill="#000" stroke="#000" points="532.17 -42.37 538.84 -34.14 528.49 -36.41 532.17 -42.37"/></g><g id="node8" class="node"><title>:core:datastore</title><ellipse cx="664.74" cy="-162" fill="none" stroke="#000" rx="81.49" ry="18"/><text x="664.74" y="-158.3" font-family="Times,serif" font-size="14" text-anchor="middle">:core:datastore</text></g><g id="edge10" class="edge"><title>:core:data-&gt;:core:datastore</title><path fill="none" stroke="#000" d="M511.59,-288.31C526.64,-269.41 552.94,-238.34 579.74,-216 594.03,-204.08 611.23,-192.87 626.4,-183.85"/><polygon fill="#000" stroke="#000" points="628.18 -186.87 635.06 -178.81 624.66 -180.82 628.18 -186.87"/></g><g id="node9" class="node"><title>:core:network</title><ellipse cx="663.74" cy="-234" fill="none" stroke="#000" rx="74.99" ry="18"/><text x="663.74" y="-230.3" font-family="Times,serif" font-size="14" text-anchor="middle">:core:network</text></g><g id="edge12" class="edge"><title>:core:data-&gt;:core:network</title><path fill="none" stroke="red" stroke-width="2" d="M531.34,-291.17C556.38,-280.55 591.23,-265.76 618.9,-254.02"/><polygon fill="red" stroke="red" stroke-width="2" points="620.52 -257.14 628.35 -250.01 617.78 -250.7 620.52 -257.14"/></g><g id="edge8" class="edge"><title>:core:model-&gt;:core:common</title><path fill="none" stroke="red" stroke-width="2" d="M572.74,-71.7C572.74,-63.98 572.74,-54.71 572.74,-46.11"/><polygon fill="red" stroke="red" stroke-width="2" points="576.24 -46.1 572.74 -36.1 569.24 -46.1 576.24 -46.1"/></g><g id="edge14" class="edge"><title>:core:datastore-&gt;:core:model</title><path fill="none" stroke="red" stroke-width="2" d="M642.94,-144.41C630.82,-135.19 615.57,-123.59 602.38,-113.55"/><polygon fill="red" stroke="red" stroke-width="2" points="604.15 -110.5 594.07 -107.23 599.91 -116.07 604.15 -110.5"/></g><g id="edge15" class="edge"><title>:core:datastore-&gt;:core:common</title><path fill="none" stroke="#000" d="M664.9,-143.88C664.31,-124.87 660.96,-93.97 646.74,-72 638.37,-59.07 625.64,-48.3 613.09,-39.92"/><polygon fill="#000" stroke="#000" points="614.81 -36.87 604.48 -34.5 611.08 -42.79 614.81 -36.87"/></g><g id="edge17" class="edge"><title>:core:network-&gt;:core:model</title><path fill="none" stroke="#000" d="M622.43,-218.95C604.51,-210.59 585.25,-198.02 574.74,-180 563.88,-161.39 564.26,-136.65 566.85,-117.98"/><polygon fill="#000" stroke="#000" points="570.32 -118.49 568.52 -108.05 563.41 -117.33 570.32 -118.49"/></g><g id="edge16" class="edge"><title>:core:network-&gt;:core:common</title><path fill="none" stroke="#000" d="M706.61,-219.07C724.84,-210.77 744.26,-198.23 754.74,-180 762.71,-166.13 761.59,-158.46 754.74,-144 729.36,-90.43 668.22,-55.97 623.79,-37.07"/><polygon fill="#000" stroke="#000" points="624.88 -33.74 614.3 -33.16 622.22 -40.21 624.88 -33.74"/></g><g id="edge18" class="edge"><title>:core:network-&gt;:core:datastore</title><path fill="none" stroke="red" stroke-width="2" d="M663.99,-215.7C664.1,-207.98 664.23,-198.71 664.35,-190.11"/><polygon fill="red" stroke="red" stroke-width="2" points="667.85 -190.15 664.5 -180.1 660.85 -190.05 667.85 -190.15"/></g></g></svg>